# xmcd
#
# Track frame offsets:
# 150
# 11891
# 22413
# 32577
# 42323
# 52295
# 64030
# 77638
# 90059
# 103005
# 118539
# 134373
# 148369
# 161515
# 174725
# 193758
# 208042
# 225276
# 238923
# 251383
#
# Disc length: 3550 seconds
#
#
# Revision: 0
# Processed by: cddbd v1.5.1PL2 Copyright (c) Steve Scherf et al.
# Submitted via: FreeRIP 2.943 
#
DISCID=1a0ddc14
DTITLE=Various Artist - Country Club
DYEAR=2002
DGENRE=Country
TTITLE0=Lefty Frizzel - Cigarettes And Coffee Blues
TTITLE1=Leroy van Dyke - Walk On Boy
TTITLE2=Billy Walker - Charlie's Shoes
TTITLE3=Hank Locklin - Geisha Girl
TTITLE4=Johnny Horton - Honky Tonk Man
TTITLE5=Johnny Cash - Ring Of Fire
TTITLE6=Alabama - High Cotton
TTITLE7=Rhonda Vincent - Is The Grass Any Bluer
TTITLE8=The O'Kanes - Oh Darlin'
TTITLE9=Reba McEntire - Sweet Music Man
TTITLE10=Highway 101 - The Bed You Made For Me
TTITLE11=Randy Travis - On The Other Hand
TTITLE12=Lorrie Morgan - Except For Monday
TTITLE13=Jim Lauderdale - She Used To Say That To Me
TTITLE14=Sherrie Austin - Goin', Goin', Gone
TTITLE15=Radney Foster - Just Call Me Lonesome
TTITLE16=K.T. Oslin - Come Next Monday
TTITLE17=Prairie Oyster - Long Gone Daddy
TTITLE18=Mindy McCready - All I Want Is Everything
TTITLE19=Lee Roy Parnell - We All Get Lucky Sometimes
EXTD=Best of Nashville and New Country\nCD 2
EXTT0=
EXTT1=
EXTT2=
EXTT3=
EXTT4=
EXTT5=
EXTT6=
EXTT7=
EXTT8=
EXTT9=
EXTT10=
EXTT11=
EXTT12=
EXTT13=
EXTT14=
EXTT15=
EXTT16=
EXTT17=
EXTT18=
EXTT19=
PLAYORDER=
